<svg xmlns="http://www.w3.org/2000/svg" xmlns:xlink="http://www.w3.org/1999/xlink" viewBox="395 220 580 180"><path fill="#F6625E" d="M662.016 305.153C679.499 278.909 699.935 253.109 716.423 227.64C728.749 244.097 739.808 256.886 752.552 272.698L806.04 339.568C816.173 352.131 829.282 367.71 838.781 380.664C865.056 381.096 892.231 382.733 918.6 383.459C930.349 383.783 961.459 384.251 970.984 386.355C956.646 387.863 933.398 387.246 918.562 387.252L834.962 387.249C810.356 358.451 787.063 327.095 762.951 297.726C748.399 280.002 735.272 261.148 719.717 244.095C719.939 256.858 720.205 271.14 719.816 283.86C713.619 292.598 706.17 303.135 699.308 311.33C706.297 320.189 713.215 329.103 720.062 338.073C702.664 352.252 678.89 375.271 662.143 387.245C652.368 388.135 633.35 387.679 623.065 387.532C609.639 387.342 592.627 388.001 579.519 387.369C575.658 388.017 538.969 387.576 532.89 387.434C501.335 386.701 467.404 388.355 436.13 387.179C428.778 385.007 409.84 388.113 400.712 384.683C426.772 382.539 453.571 383.433 479.659 381.379C484.616 380.989 491.768 377.244 496.171 374.824C520.835 361.266 545.915 348.214 570.085 333.815C571.542 332.948 575.237 327.904 576.435 326.33C590.836 303.359 609.883 280.772 624.361 257.961C636.647 273.848 648.836 290.004 662.016 305.153ZM565.905 380.505C596.669 380.541 631.069 381.285 661.6 380.433L667.269 375.593C668.727 373.664 677.432 366.716 679.618 364.85L712.245 337.054C705.455 328.554 698.816 319.933 692.332 311.196C699.631 301.614 706.813 291.945 713.879 282.19C714.261 269.867 714.133 257.09 714.16 244.728C701.623 259.582 687.522 281.417 676.342 297.572C661.05 319.669 654.911 321.628 633.049 336.159L580.415 371.355C575.691 374.352 570.682 377.661 565.905 380.505ZM626.688 274.062C623.05 289.68 619.582 304.404 615.265 319.866C618.122 323.213 623.268 328.892 625.683 332.28L637.477 324.364C643.885 320.117 650.995 315.18 657.552 311.307C652.261 304.549 631.962 278.3 626.688 274.062ZM552.99 380.521C566.502 371.283 580.157 362.253 593.95 353.438C602.616 347.083 612.134 340.976 621.138 335.024L609.037 321.455C613.329 306.573 616.7 292.229 620.227 277.127C616.97 281 612.449 287.907 609.305 292.18C600.129 304.651 591.525 317.687 582.226 330.08C575.904 341.417 557.985 349.517 546.572 355.942C531.723 364.302 515.624 373.813 500.11 380.672C509.406 380.674 521.98 380.294 531.006 380.77L552.99 380.521Z"/><defs><linearGradient id="gradient_0" gradientUnits="userSpaceOnUse" x1="488.95544" y1="336.36343" x2="489.53705" y2="386.41962"><stop offset="0" stop-color="#F44672"/><stop offset="1" stop-color="#D83382"/></linearGradient></defs><path fill="url(#gradient_0)" d="M400.712 384.683C426.772 382.539 453.571 383.433 479.659 381.379C484.616 380.989 491.768 377.244 496.171 374.824C520.835 361.266 545.915 348.214 570.085 333.815C571.542 332.948 575.237 327.904 576.435 326.33C575.884 331.221 572.545 332.623 571.413 335.815C568.703 343.453 538.661 355.271 536.983 359.253C546.667 356.509 563.133 343.213 572.879 339.329C576.203 338.004 579.115 330.171 582.226 330.08C575.904 341.417 557.985 349.517 546.572 355.942C531.723 364.302 515.624 373.813 500.11 380.672C509.406 380.674 521.98 380.294 531.006 380.77C527.66 381.208 523.21 381.532 520.261 382.941L518.839 383.636C524.73 384.421 533.847 386.328 539.438 386.213C553.334 385.926 565.665 386.254 579.519 387.369C575.658 388.017 538.969 387.576 532.89 387.434C501.335 386.701 467.404 388.355 436.13 387.179C428.778 385.007 409.84 388.113 400.712 384.683Z"/><path fill="#E83E78" d="M593.95 353.438C591.692 360.751 573.729 365.399 580.415 371.355C575.691 374.352 570.682 377.661 565.905 380.505C596.669 380.541 631.069 381.285 661.6 380.433L667.269 375.593L667.563 377.049C666.211 379.024 663.799 380.234 661.719 381.523C651.705 381.374 567.921 382.048 565.392 381.009C565.848 379.116 568.788 376.902 570.386 375.465C568.509 374.624 562.028 377.086 560.27 378.211C553.127 382.783 545.083 382.016 536.894 382.449C531.711 382.723 525.502 383.205 520.261 382.941C523.21 381.532 527.66 381.208 531.006 380.77L552.99 380.521C566.502 371.283 580.157 362.253 593.95 353.438Z"/><path fill="#AD2A64" fill-opacity="0.98431373" d="M436.13 387.179C425.846 387.687 385.572 387.495 377.085 385.968C378.11 385.313 398.297 384.585 400.712 384.683C409.84 388.113 428.778 385.007 436.13 387.179Z"/></svg>
